<?xml version="1.0" standalone="no"?><!DOCTYPE svg PUBLIC "-//W3C//DTD SVG 1.1//EN" "http://www.w3.org/Graphics/SVG/1.1/DTD/svg11.dtd"><svg t="1645254574962" class="icon" viewBox="0 0 1024 1024" version="1.1" xmlns="http://www.w3.org/2000/svg" p-id="28879" xmlns:xlink="http://www.w3.org/1999/xlink" width="30" height="30"><defs><style type="text/css"></style></defs><path d="M518.4 300.8c-55.1 0-100-44.8-100-99.9 0-55.1 44.8-100 100-100 55.1 0 99.9 44.8 99.9 100 0 55-44.8 99.9-99.9 99.9z m0-165.7c-36.2 0-65.7 29.5-65.7 65.7s29.5 65.7 65.7 65.7 65.7-29.5 65.7-65.7-29.5-65.7-65.7-65.7z m359.4 419.4c14.4-150.7-63.3-292.6-198.2-361.4-8.5-4.4-18.7-1-23 7.5-4.3 8.4-1 18.7 7.5 23 122.2 62.4 192.8 191 179.7 327.6-0.9 9.4 6 17.8 15.4 18.7 0.6 0.1 1.1 0.1 1.7 0.1 8.6 0 16-6.6 16.9-15.5z m-712.5 15.4c9.4-0.9 16.3-9.3 15.4-18.7-13.1-136.6 57.5-265.2 179.7-327.6 8.4-4.3 11.8-14.6 7.5-23-4.3-8.4-14.6-11.8-23-7.5C210 261.9 132.2 403.8 146.7 554.5c0.8 8.8 8.3 15.5 17 15.5 0.5 0 1.1 0 1.6-0.1z m589.8 252.7c7.2-6.1 8.1-16.9 2-24.1-6.1-7.2-16.9-8.1-24.1-2-59.8 50.7-136.1 78.7-214.6 78.7-80 0-157.4-28.9-217.7-81.3-7.1-6.2-18-5.5-24.1 1.7-6.2 7.1-5.4 17.9 1.7 24.1 66.6 57.8 151.9 89.7 240.2 89.7 86.5 0 170.6-30.8 236.6-86.8z m71.7-44.6c-55.1 0-99.9-44.8-99.9-99.9s44.8-99.9 99.9-99.9 99.9 44.8 99.9 99.9-44.8 99.9-99.9 99.9z m0-165.7c-36.2 0-65.7 29.5-65.7 65.7s29.5 65.7 65.7 65.7 65.7-29.5 65.7-65.7c0.1-36.2-29.4-65.7-65.7-65.7z m-631 170.9c-55.1 0-99.9-44.8-99.9-100 0-55.1 44.8-99.9 99.9-99.9s99.9 44.8 99.9 99.9c0.1 55.2-44.8 100-99.9 100z m0-165.7c-36.2 0-65.7 29.5-65.7 65.7s29.5 65.7 65.7 65.7 65.7-29.5 65.7-65.7c0.1-36.2-29.4-65.7-65.7-65.7z" p-id="28880"></path></svg>