<?xml version="1.0" standalone="no"?><!DOCTYPE svg PUBLIC "-//W3C//DTD SVG 1.1//EN" "http://www.w3.org/Graphics/SVG/1.1/DTD/svg11.dtd"><svg t="1645251467906" class="icon" viewBox="0 0 1024 1024" version="1.1" xmlns="http://www.w3.org/2000/svg" p-id="2789" xmlns:xlink="http://www.w3.org/1999/xlink" width="32" height="32"><defs><style type="text/css"></style></defs><path d="M511.66 0.625C229.2 0.625 0.227 229.598 0.227 512.057S229.2 1023.488 511.66 1023.488c282.459 0 511.432-228.973 511.432-511.432S794.119 0.625 511.66 0.625z m0 953.123c-243.912 0-441.692-197.758-441.692-441.691 0-243.934 197.78-441.692 441.692-441.692 243.956 0 441.692 197.758 441.692 441.692 0 243.933-197.737 441.691-441.692 441.691z" p-id="2790"></path><path d="M510.57 344.391h57.436v117.721c-1.09 24.189-4.268 47.618-9.49 70.297h199.188v56.913H539.582l-8.943 17.855c76.596 31.988 148.971 67.505 217.031 106.564l-40.727 44.632c-65.475-40.172-134.26-76.245-206.454-108.243-0.727 0.749-1.089 1.316-1.089 1.68-41.273 43.895-107.518 77.551-198.644 100.979l-32.918-51.33c92.987-23.429 155.872-53.18 188.609-89.265a384.943 384.943 0 0 0 16.163-22.873H265.615v-56.913h232.65c6.311-20.818 10.443-44.258 12.305-70.297v-117.72z m-225.432-78.663h433.518v36.267c-8.58 33.474-19.16 66.018-31.781 97.63l-54.123-15.619c10.762-20.092 19.342-41.659 25.654-64.724H285.138v-53.554z m33.508 145.61c43.861 17.118 82.363 37.016 115.463 59.707l-30.103 45.744c-36.46-27.9-74.055-49.648-112.738-65.279l27.378-40.172z m50.172-75.87c43.906 16.368 83.726 35.518 119.413 57.459l-30.104 45.756c-37.958-26.788-76.823-47.606-116.643-62.487l27.334-40.728z" p-id="2791"></path></svg>