<?xml version="1.0" standalone="no"?><!DOCTYPE svg PUBLIC "-//W3C//DTD SVG 1.1//EN" "http://www.w3.org/Graphics/SVG/1.1/DTD/svg11.dtd"><svg t="1645253580732" class="icon" viewBox="0 0 1024 1024" version="1.1" xmlns="http://www.w3.org/2000/svg" p-id="10692" xmlns:xlink="http://www.w3.org/1999/xlink" width="32" height="32"><defs><style type="text/css"></style></defs><path d="M510.5152 508.0064m-450.816 0a450.816 450.816 0 1 0 901.632 0 450.816 450.816 0 1 0-901.632 0Z" fill="#8486F8" p-id="10693"></path><path d="M723.456 244.48H297.6256c-47.616 0-86.2208 38.6048-86.2208 86.2208v354.6112c0 47.616 38.6048 86.2208 86.2208 86.2208h425.8304c47.616 0 86.2208-38.6048 86.2208-86.2208V330.7008c0-47.616-38.6048-86.2208-86.2208-86.2208z m-326.9632 417.6384c0 14.0288-11.3664 25.3952-25.3952 25.3952s-25.3952-11.3664-25.3952-25.3952v-78.1312c0-14.0288 11.3664-25.3952 25.3952-25.3952s25.3952 11.3664 25.3952 25.3952v78.1312z m94.0544 0c0 14.0288-11.3664 25.3952-25.3952 25.3952s-25.3952-11.3664-25.3952-25.3952V511.0272c0-14.0288 11.3664-25.3952 25.3952-25.3952s25.3952 11.3664 25.3952 25.3952v151.0912z m94.0032 0a25.3952 25.3952 0 0 1-25.3952 25.3952 25.3952 25.3952 0 0 1-25.3952-25.3952v-116.48a25.3952 25.3952 0 0 1 25.3952-25.3952 25.3952 25.3952 0 0 1 25.3952 25.3952v116.48z m94.0544 0a25.3952 25.3952 0 0 1-25.3952 25.3952 25.3952 25.3952 0 0 1-25.3952-25.3952V480.6144a25.3952 25.3952 0 0 1 25.3952-25.3952 25.3952 25.3952 0 0 1 25.3952 25.3952v181.504z m-3.1744-277.8112l-92.6208 80.0256a25.50784 25.50784 0 0 1-31.9488 1.0752L468.3776 403.0976l-85.9648 76.8c-4.864 4.352-10.9056 6.5024-16.9472 6.5024-6.9632 0-13.9264-2.8672-18.944-8.4992-9.3696-10.4448-8.448-26.5216 1.9968-35.8912L450.048 351.2832a25.41568 25.41568 0 0 1 32.256-1.3312l82.7904 62.464 77.1072-66.56a25.43616 25.43616 0 0 1 35.84 2.6112 25.43616 25.43616 0 0 1-2.6112 35.84z" fill="#FFFFFF" p-id="10694"></path></svg>