<?xml version="1.0" standalone="no"?><!DOCTYPE svg PUBLIC "-//W3C//DTD SVG 1.1//EN" "http://www.w3.org/Graphics/SVG/1.1/DTD/svg11.dtd"><svg t="1646981641480" class="icon" viewBox="0 0 1025 1024" version="1.1" xmlns="http://www.w3.org/2000/svg" p-id="3554" xmlns:xlink="http://www.w3.org/1999/xlink" width="64.0625" height="64"><defs><style type="text/css"></style></defs><path d="M594.41 273.442c-8.702-8.753-22.848-8.753-31.642 0l-222.65 222.783c-4.35 4.31-6.547 10.022-6.547 15.775 0 5.763 2.196 11.424 6.599 15.826l222.598 222.742c8.753 8.702 22.909 8.702 31.642 0 8.794-8.753 8.794-22.95 0-31.683L387.587 512.01 594.41 305.094c8.784-8.753 8.784-22.909 0-31.652z" p-id="3555"></path><path d="M512.041 62C263.864 61.907 62 263.864 62 512s201.864 450 450.041 450c248.136 0 450.041-201.864 450.041-450S760.188 61.907 512.042 62z m0 855.264c-223.484 0-405.305-181.77-405.305-405.264 0-223.484 181.82-405.305 405.305-405.305 223.495 0 405.264 181.82 405.264 405.305 0 223.495-181.77 405.264-405.264 405.264z" p-id="3556"></path></svg>