<?xml version="1.0" standalone="no"?><!DOCTYPE svg PUBLIC "-//W3C//DTD SVG 1.1//EN" "http://www.w3.org/Graphics/SVG/1.1/DTD/svg11.dtd"><svg t="1645255055841" class="icon" viewBox="0 0 1024 1024" version="1.1" xmlns="http://www.w3.org/2000/svg" p-id="30382" xmlns:xlink="http://www.w3.org/1999/xlink" width="32" height="32"><defs><style type="text/css"></style></defs><path d="M669.936 120h-64a8 8 0 0 1 0-16h64a8 8 0 0 1 0 16z" fill="#263238" p-id="30383"></path><path d="M637.936 152a8 8 0 0 1-8-8V80a8 8 0 0 1 16 0v64a8 8 0 0 1-8 8zM741.936 216h-64a8 8 0 0 1 0-16h64a8 8 0 0 1 0 16z" fill="#263238" p-id="30384"></path><path d="M709.936 248a8 8 0 0 1-8-8v-64a8 8 0 0 1 16 0v64a8 8 0 0 1-8 8zM901.92 824h-768a7.984 7.984 0 0 1-6.768-12.272l80.848-128a8 8 0 0 1 6.768-3.728h606.336a8 8 0 0 1 6.768 3.728l80.832 128a8.016 8.016 0 0 1-6.784 12.272z m-753.488-16h738.976l-70.72-112H219.168l-70.736 112z" fill="#263238" p-id="30385"></path><path d="M234.976 656h565.904l-80.848-128H315.824z" fill="#4DB6AC" p-id="30386"></path><path d="M800.88 664H234.992a7.984 7.984 0 0 1-6.768-12.272l80.848-128a8 8 0 0 1 6.768-3.728h404.208a8 8 0 0 1 6.768 3.728l80.848 128a7.968 7.968 0 0 1 0.24 8.128 8.064 8.064 0 0 1-7.024 4.144z m-551.376-16h536.864l-70.736-112H320.24l-70.736 112z" fill="#263238" p-id="30387"></path><path d="M336.032 496h363.792l-80.848-128H416.88z" fill="#FFD740" p-id="30388"></path><path d="M699.824 504H336.032a7.984 7.984 0 0 1-6.768-12.272l80.848-128a8 8 0 0 1 6.768-3.728h202.112a8 8 0 0 1 6.768 3.728l80.848 128a8.016 8.016 0 0 1-6.784 12.272z m-349.28-16h334.768l-70.736-112H421.28l-70.736 112z" fill="#263238" p-id="30389"></path><path d="M517.92 208l-80.832 128h161.68z" fill="#FF5252" p-id="30390"></path><path d="M598.768 344H437.088a7.984 7.984 0 0 1-6.768-12.272l80.832-128c2.944-4.64 10.592-4.64 13.536 0l80.848 128a8.016 8.016 0 0 1-6.768 12.272z m-147.152-16h132.64l-66.336-105.008-66.304 105.008zM40 520h-32a8 8 0 0 1 0-16h32a8 8 0 0 1 0 16z" fill="#263238" p-id="30391"></path><path d="M232 520h-160a8 8 0 0 1 0-16h160a8 8 0 0 1 0 16z" fill="#263238" p-id="30392"></path><path d="M1016 520h-32a8 8 0 0 1 0-16h32a8 8 0 0 1 0 16z" fill="#263238" p-id="30393"></path><path d="M952 520h-160a8 8 0 0 1 0-16h160a8 8 0 0 1 0 16z" fill="#263238" p-id="30394"></path></svg>