<?xml version="1.0" standalone="no"?><!DOCTYPE svg PUBLIC "-//W3C//DTD SVG 1.1//EN" "http://www.w3.org/Graphics/SVG/1.1/DTD/svg11.dtd"><svg t="1645251426126" class="icon" viewBox="0 0 1024 1024" version="1.1" xmlns="http://www.w3.org/2000/svg" p-id="2124" xmlns:xlink="http://www.w3.org/1999/xlink" width="32" height="32"><defs><style type="text/css"></style></defs><path d="M511.5 0.681C229.003 0.681 0 229.684 0 512.182c0 282.496 229.004 511.5 511.5 511.5 282.498 0 511.5-229.004 511.5-511.5C1023 229.684 793.998 0.681 511.5 0.681z m0 953.251c-243.943 0-441.75-197.807-441.75-441.75 0-243.989 197.807-441.751 441.75-441.751 243.99 0 441.75 197.762 441.75 441.751 0 243.943-197.76 441.75-441.75 441.75z" p-id="2125"></path><path d="M330.154 498.218c39.802 13.01 77.743 29.403 113.821 49.111l-24.521 37.372H511.5c4.836-15.984 7.992-31.424 9.49-46.318v-90.957h56.355v90.957c-1.113 16.394-3.338 31.833-6.676 46.318h176.328v55.265H548.895l-5.584 8.9c69.182 20.116 133.164 43.911 191.971 71.43l-32.922 50.769c-62.508-34.216-126.877-61.734-193.084-82.556-40.188 34.58-106.033 61.372-197.534 80.331L280.5 719.184c92.251-18.232 154.576-40.732 186.931-67.502l11.716-11.716h-203.12v-55.265h127.217c-32.354-18.981-65.845-34.217-100.425-45.751l27.335-40.732z m-47.975-117.182H483.05v-37.372H323.457v-52.449H483.05v-37.963h56.922v37.963h156.234v52.449H539.973v37.372h195.309v36.283c-8.219 37.917-19.367 75.336-33.512 112.163l-54.674-15.644c10.807-21.57 20.457-48.157 29.016-79.786H282.179v-53.016z m94.862 59.148c40.166 10.784 78.65 24.93 115.479 42.413l-28.995 44.07c-37.576-20.071-75.54-35.511-113.82-46.318l27.336-40.165z" p-id="2126"></path></svg>